<svg id="e4JXiPjNRhH1" xmlns="http://www.w3.org/2000/svg" xmlns:xlink="http://www.w3.org/1999/xlink" viewBox="0 0 300 300" shape-rendering="geometricPrecision" text-rendering="geometricPrecision"><path d="M66.897502,72.260204C81.197801,98.247991,80.669579,99.090117,53.714321,145.08289" transform="translate(27.10956 10.186473)" fill="none" stroke="#3f5787" stroke-width="10" stroke-linecap="round" stroke-linejoin="round"/><path d="M73.90627,51.601645c-16.64668,14.893981-10.4699,34.11986,40.383896,22.435498C161.295988,63.236906,147.19556,42.627447,179.35311,55.71482" transform="translate(26.639829 5.631751)" fill="none" fill-rule="evenodd" stroke="#3f5787" stroke-width="10" stroke-linecap="round" stroke-linejoin="round"/><path d="M147.19556,77.77639c-12.713444,7.478502-17.184215,42.627449,0,51.975573" transform="translate(29.712199-2.434287)" fill="none" stroke="#3f5787" stroke-width="10" stroke-linecap="round" stroke-linejoin="round"/><path d="M63.43637,145.08289c23.005082-36.411343,103.390249.000002,80.726146-20.847113" transform="translate(27.10956 10.186473)" fill="none" stroke="#3f5787" stroke-width="10" stroke-linecap="round" stroke-linejoin="round"/><path d="M30.53097,171.25763c15.330927-17.9484,19.999983-4.624117,38.333072-8.60027c71.980551-15.611429,114.7892-45.526157,146.385868-9.34813" transform="translate(27.10956 10.186474)" fill="none" stroke="#3f5787" stroke-width="10" stroke-linecap="round" stroke-linejoin="round"/><path d="M102.69849,162.65736c-17.112407,28.510985-32.374157,45.776789,0,45.776787" transform="translate(28.210513 1.622918)" fill="none" stroke="#3f5787" stroke-width="10" stroke-linecap="round" stroke-linejoin="round"/><path d="M68.864042,185.545755c-8.506601,4.874742-11.596135,44.510787,23.339267,44.510787c24.811815,0,113.423977-22.255394,108.936877-44.510787" transform="translate(20.46644 12.803948)" fill="none" stroke="#3f5787" stroke-width="10" stroke-linecap="round" stroke-linejoin="round"/></svg>
